<?xml version="1.0" encoding="utf-8"?>
<!-- Generator: Adobe Illustrator 26.0.3, SVG Export Plug-In . SVG Version: 6.00 Build 0)  -->
<svg version="1.1" id="Layer_1" xmlns="http://www.w3.org/2000/svg" xmlns:xlink="http://www.w3.org/1999/xlink" x="0px" y="0px"
	 viewBox="0 0 1000 1000" style="enable-background:new 0 0 1000 1000;" xml:space="preserve">
<style type="text/css">
	.st0{fill:#FFFFFF;}
</style>
<path class="st0" d="M255.4,152.2C130.9,152.2,30,253.1,30,377.6c0,170.1,152.3,438.6,206.5,528.8c8.6,14.3,29.2,14.3,37.8,0
	c54.2-90.2,206.5-358.8,206.5-528.8C480.8,253.1,379.9,152.2,255.4,152.2z M255.4,513c-74.7,0-135.3-60.6-135.3-135.3
	s60.6-135.3,135.3-135.3s135.3,60.6,135.3,135.3S330.1,513,255.4,513z"/>
<g>
	<path class="st0" d="M356.7,859.4l7.4-0.3l7.6-0.3c5.1-0.3,10.1-0.5,15.2-0.8c10.2-0.6,20.3-1.4,30.5-2.2l0,0
		c11.3-0.9,21.1,7.5,22.1,18.7c0.9,11-7.2,20.7-18.1,22c-10.4,1.2-20.8,2.3-31.2,3.3c-5.2,0.5-10.4,1-15.7,1.4l-7.9,0.6l-8.1,0.6
		c-11.8,0.8-22.1-8.1-23-20c-0.8-11.8,8.1-22.1,20-23c0.2,0,0.4,0,0.6,0L356.7,859.4z"/>
	<path class="st0" d="M478.3,849.7c20.2-2.4,40.4-5.3,60.5-8.6l0,0c10-1.7,19.5,5.1,21.2,15.1c1.6,9.8-4.9,19.1-14.5,21
		c-20.5,4.1-41.1,7.7-61.8,10.9c-10.6,1.6-20.5-5.6-22.2-16.2s5.6-20.5,16.2-22.2C477.9,849.7,478.1,849.7,478.3,849.7z"/>
	<path class="st0" d="M598.6,829.4c19.8-4.5,39.4-9.5,58.6-15.5l0,0c8.6-2.7,17.7,2.1,20.4,10.7c2.6,8.4-2,17.4-10.2,20.2
		c-20,7-40.3,12.9-60.7,18.2c-9.3,2.4-18.8-3.1-21.2-12.4s3.1-18.8,12.4-21.2C598.2,829.5,598.5,829.5,598.6,829.4z"/>
	<path class="st0" d="M713.5,792.9c9-4.1,17.8-8.6,26.3-13.4c8.5-4.9,16.6-10.2,24.1-16.1l0,0c6.2-4.8,15.2-3.7,20,2.5
		c4.7,6.1,3.7,14.8-2.2,19.7c-8.6,7.1-17.6,13.4-26.8,19.2c-9.3,5.8-18.7,10.9-28.4,15.7l0,0c-7.6,3.7-16.7,0.7-20.5-6.9
		c-3.7-7.6-0.7-16.7,6.9-20.5C713.1,793,713.3,793,713.5,792.9z"/>
	<path class="st0" d="M798.9,721.4c1.8-4.1,3.2-8.2,4.2-12.5c0.5-2.1,0.9-4.3,1.3-6.5c0.2-1.1,0.3-2.2,0.4-3.3
		c0.1-1.2,0.2-2.4,0.3-3.6c0.8-9.6,0.7-19.1-0.5-28.3l0-0.1c-0.9-6.7,3.8-12.8,10.5-13.6c6.5-0.9,12.5,3.6,13.6,10.1
		c1.9,11.2,2.3,22.5,1.8,33.5c-0.1,1.4-0.1,2.7-0.2,4.2c-0.1,1.5-0.2,2.9-0.4,4.4c-0.3,2.9-0.8,5.9-1.4,8.8
		c-1.2,5.8-2.9,11.5-5.1,17l0,0c-2.7,6.8-10.3,10.1-17.1,7.4c-6.8-2.7-10.1-10.3-7.4-17.1C798.8,721.7,798.8,721.6,798.9,721.4z"/>
	<path class="st0" d="M782.2,617.8c-6.2-7-13.5-13.2-21.4-19c-7.9-5.7-16.4-10.9-25.2-15.9l0,0c-4.8-2.8-6.5-8.9-3.8-13.8
		c2.7-4.7,8.7-6.5,13.5-3.9c9.3,4.9,18.7,10.2,27.7,16.3c9,6.1,17.8,13.1,25.6,21.3l0,0c4.2,4.4,4.1,11.5-0.4,15.7
		c-4.4,4.2-11.5,4.1-15.7-0.4C782.3,618,782.2,617.9,782.2,617.8z"/>
	<path class="st0" d="M681.1,552.2c-9-5.8-17.8-12.2-25.9-19.8c-8-7.6-15.3-16.4-20.7-26.3c-2.1-3.9-0.7-8.8,3.2-10.9
		c3.8-2.1,8.5-0.7,10.7,3c4.8,8.1,11,15.3,18.2,21.6c7.2,6.4,15.3,11.9,23.9,17c4.3,2.6,5.7,8.1,3.2,12.4c-2.6,4.3-8.1,5.7-12.4,3.2
		C681.3,552.4,681.2,552.3,681.1,552.2z"/>
	<path class="st0" d="M623.1,441.6c1.1-11,3.9-21.8,8.2-31.9c4.3-10.1,10-19.4,16.5-27.9c2-2.6,5.7-3.1,8.3-1.1
		c2.5,1.9,3.1,5.6,1.2,8.2l0,0c-5.8,8.1-10.6,16.7-14.1,25.8c-3.5,9.1-5.7,18.5-6.3,28.1c-0.2,3.8-3.5,6.8-7.4,6.5
		c-3.8-0.2-6.8-3.5-6.5-7.4C623.1,441.8,623.1,441.7,623.1,441.6L623.1,441.6z"/>
	<path class="st0" d="M694.5,338.7c17.3-12,35.7-22.2,54.5-31.1c1.9-0.9,4.2-0.1,5.1,1.8c0.9,1.9,0.1,4.1-1.7,5.1l0,0
		c-18.2,9.4-35.9,20-52.2,32.2l0,0c-2.2,1.6-5.2,1.2-6.9-1c-1.6-2.2-1.2-5.2,1-6.9C694.4,338.8,694.5,338.7,694.5,338.7z"/>
	<path class="st0" d="M806.6,283.9c19.5-7,39.4-13.1,59.3-18.6c0.9-0.3,1.9,0.3,2.2,1.2c0.3,0.9-0.3,1.9-1.2,2.2
		c-19.7,6.2-39.2,12.9-58.3,20.5c-1.4,0.6-3.1-0.1-3.7-1.6C804.4,286.1,805.1,284.5,806.6,283.9
		C806.6,283.9,806.6,283.9,806.6,283.9z"/>
	<path class="st0" d="M926.3,250.5c7.3-1.5,14.5-3,21.8-4.4c7.3-1.4,14.6-2.7,21.9-3.8c-7.3,1.4-14.5,2.9-21.8,4.5
		c-7.2,1.6-14.5,3.3-21.7,5.1c-0.4,0.1-0.8-0.1-0.9-0.5C925.6,251,925.9,250.6,926.3,250.5C926.3,250.5,926.3,250.5,926.3,250.5z"/>
</g>
</svg>
