<?xml version="1.0" encoding="utf-8"?>
<!-- Generator: Adobe Illustrator 26.1.0, SVG Export Plug-In . SVG Version: 6.00 Build 0)  -->
<svg version="1.1" id="Layer_1" xmlns="http://www.w3.org/2000/svg" xmlns:xlink="http://www.w3.org/1999/xlink" x="0px" y="0px"
	 viewBox="0 0 5911 888.4" style="enable-background:new 0 0 5911 888.4;" xml:space="preserve">
<style type="text/css">
	.st0{fill:#000060;}
</style>
<path class="st0" d="M255.4,40.6C130.9,40.6,30,141.5,30,266c0,170.1,152.3,438.6,206.5,528.8c8.6,14.3,29.2,14.3,37.8,0
	C328.5,704.6,480.8,436,480.8,266C480.8,141.5,379.9,40.6,255.4,40.6z M255.4,401.4c-74.7,0-135.3-60.6-135.3-135.3
	s60.6-135.3,135.3-135.3s135.3,60.6,135.3,135.3S330.1,401.4,255.4,401.4z"/>
<g>
	<path class="st0" d="M356.7,747.8l7.4-0.3l7.6-0.3c5.1-0.3,10.1-0.5,15.2-0.8c10.2-0.6,20.3-1.4,30.5-2.2l0,0
		c11.3-0.9,21.1,7.5,22.1,18.7c0.9,11-7.2,20.7-18.1,22c-10.4,1.2-20.8,2.3-31.2,3.3c-5.2,0.5-10.4,1-15.7,1.4l-7.9,0.6l-8.1,0.6
		c-11.8,0.8-22.1-8.1-23-20c-0.8-11.8,8.1-22.1,20-23c0.2,0,0.4,0,0.6,0H356.7z"/>
	<path class="st0" d="M478.3,738.1c20.2-2.4,40.4-5.3,60.5-8.6l0,0c10-1.7,19.5,5.1,21.2,15.1c1.6,9.8-4.9,19.1-14.5,21
		c-20.5,4.1-41.1,7.7-61.8,10.9c-10.6,1.6-20.5-5.6-22.2-16.2s5.6-20.5,16.2-22.2C477.9,738.1,478.1,738.1,478.3,738.1z"/>
	<path class="st0" d="M598.6,717.8c19.8-4.5,39.4-9.5,58.6-15.5l0,0c8.6-2.7,17.7,2.1,20.4,10.7c2.6,8.4-2,17.4-10.2,20.2
		c-20,7-40.3,12.9-60.7,18.2c-9.3,2.4-18.8-3.1-21.2-12.4s3.1-18.8,12.4-21.2C598.2,717.9,598.5,717.9,598.6,717.8z"/>
	<path class="st0" d="M713.5,681.3c9-4.1,17.8-8.6,26.3-13.4c8.5-4.9,16.6-10.2,24.1-16.1l0,0c6.2-4.8,15.2-3.7,20,2.5
		c4.7,6.1,3.7,14.8-2.2,19.7c-8.6,7.1-17.6,13.4-26.8,19.2c-9.3,5.8-18.7,10.9-28.4,15.7l0,0c-7.6,3.7-16.7,0.7-20.5-6.9
		c-3.7-7.6-0.7-16.7,6.9-20.5C713.1,681.4,713.3,681.4,713.5,681.3z"/>
	<path class="st0" d="M798.9,609.8c1.8-4.1,3.2-8.2,4.2-12.5c0.5-2.1,0.9-4.3,1.3-6.5c0.2-1.1,0.3-2.2,0.4-3.3
		c0.1-1.2,0.2-2.4,0.3-3.6c0.8-9.6,0.7-19.1-0.5-28.3v-0.1c-0.9-6.7,3.8-12.8,10.5-13.6c6.5-0.9,12.5,3.6,13.6,10.1
		c1.9,11.2,2.3,22.5,1.8,33.5c-0.1,1.4-0.1,2.7-0.2,4.2c-0.1,1.5-0.2,2.9-0.4,4.4c-0.3,2.9-0.8,5.9-1.4,8.8
		c-1.2,5.8-2.9,11.5-5.1,17l0,0c-2.7,6.8-10.3,10.1-17.1,7.4c-6.8-2.7-10.1-10.3-7.4-17.1C798.8,610.1,798.8,610,798.9,609.8z"/>
	<path class="st0" d="M782.2,506.2c-6.2-7-13.5-13.2-21.4-19c-7.9-5.7-16.4-10.9-25.2-15.9l0,0c-4.8-2.8-6.5-8.9-3.8-13.8
		c2.7-4.7,8.7-6.5,13.5-3.9c9.3,4.9,18.7,10.2,27.7,16.3s17.8,13.1,25.6,21.3l0,0c4.2,4.4,4.1,11.5-0.4,15.7
		c-4.4,4.2-11.5,4.1-15.7-0.4C782.3,506.4,782.2,506.3,782.2,506.2z"/>
	<path class="st0" d="M681.1,440.6c-9-5.8-17.8-12.2-25.9-19.8c-8-7.6-15.3-16.4-20.7-26.3c-2.1-3.9-0.7-8.8,3.2-10.9
		c3.8-2.1,8.5-0.7,10.7,3c4.8,8.1,11,15.3,18.2,21.6c7.2,6.4,15.3,11.9,23.9,17c4.3,2.6,5.7,8.1,3.2,12.4c-2.6,4.3-8.1,5.7-12.4,3.2
		C681.3,440.8,681.2,440.7,681.1,440.6z"/>
	<path class="st0" d="M623.1,330c1.1-11,3.9-21.8,8.2-31.9s10-19.4,16.5-27.9c2-2.6,5.7-3.1,8.3-1.1c2.5,1.9,3.1,5.6,1.2,8.2l0,0
		c-5.8,8.1-10.6,16.7-14.1,25.8c-3.5,9.1-5.7,18.5-6.3,28.1c-0.2,3.8-3.5,6.8-7.4,6.5c-3.8-0.2-6.8-3.5-6.5-7.4
		C623.1,330.2,623.1,330.1,623.1,330L623.1,330z"/>
	<path class="st0" d="M694.5,227.1c17.3-12,35.7-22.2,54.5-31.1c1.9-0.9,4.2-0.1,5.1,1.8c0.9,1.9,0.1,4.1-1.7,5.1l0,0
		c-18.2,9.4-35.9,20-52.2,32.2l0,0c-2.2,1.6-5.2,1.2-6.9-1c-1.6-2.2-1.2-5.2,1-6.9C694.4,227.2,694.5,227.1,694.5,227.1z"/>
	<path class="st0" d="M806.6,172.3c19.5-7,39.4-13.1,59.3-18.6c0.9-0.3,1.9,0.3,2.2,1.2c0.3,0.9-0.3,1.9-1.2,2.2
		c-19.7,6.2-39.2,12.9-58.3,20.5c-1.4,0.6-3.1-0.1-3.7-1.6C804.4,174.5,805.1,172.9,806.6,172.3L806.6,172.3z"/>
	<path class="st0" d="M926.3,138.9c7.3-1.5,14.5-3,21.8-4.4s14.6-2.7,21.9-3.8c-7.3,1.4-14.5,2.9-21.8,4.5
		c-7.2,1.6-14.5,3.3-21.7,5.1c-0.4,0.1-0.8-0.1-0.9-0.5C925.6,139.4,925.9,139,926.3,138.9L926.3,138.9z"/>
</g>
<g>
	<polygon class="st0" points="1739.1,606.7 1548.9,173.3 1356.6,608.6 1185.4,126.3 1136,126.3 1352.4,735.8 1548.9,289.5 
		1743.3,735.8 1958.6,126.3 1908.2,126.3 	"/>
	<polygon class="st0" points="1985.6,725.7 2031.8,725.7 2266,221.3 2354.9,422.3 2233.2,422.3 2211.7,465.6 2374.1,465.6 
		2489.1,725.7 2534.3,725.7 2267.8,118.9 	"/>
	<polygon class="st0" points="2790.4,473 2574.8,126.3 2525,126.3 2769.1,518.2 2769.1,725.7 2810.6,725.7 2810.6,518.2 
		3054.8,126.3 3005,126.3 	"/>
	<path class="st0" d="M4166.1,160.9c-46.7-27.3-97.4-41-152.1-41c-54.7,0-105.4,13.7-152.1,41c-46.7,27.4-83.6,64.5-110.7,111.6
		c-27.1,47-40.6,98.2-40.6,153.5s13.5,106.5,40.6,153.5c27,47,63.9,84.2,110.7,111.6c46.7,27.4,97.4,41,152.1,41
		c54.7,0,105.4-13.7,152.1-41c46.7-27.3,83.6-64.5,110.6-111.6c27-47,40.6-98.2,40.6-153.5s-13.5-106.5-40.6-153.5
		C4249.6,225.4,4212.8,188.3,4166.1,160.9z M4239.8,558.3c-23.4,40.3-55,72.2-95,95.9c-40,23.7-83.6,35.5-130.9,35.5
		c-47.3,0-91-11.8-130.9-35.5c-40-23.7-71.8-55.6-95.4-95.9c-23.7-40.3-35.5-84.4-35.5-132.3s11.8-92,35.5-132.3
		c23.7-40.3,55.5-72.2,95.4-95.9c39.9-23.7,83.6-35.5,130.9-35.5c47.3,0,91,11.8,130.9,35.5c40,23.7,71.6,55.6,95,95.9
		c23.4,40.3,35,84.4,35,132.3S4263.2,518.1,4239.8,558.3z"/>
	<rect x="4462" y="126.3" class="st0" width="41.5" height="599.3"/>
	<polygon class="st0" points="5107.4,615 4692.5,118.9 4692.5,725.7 4734,725.7 4734,238.8 5148.9,735.8 5148.9,126.3 5107.4,126.3 
			"/>
	<rect x="5515.9" y="224.3" class="st0" width="42.4" height="501.4"/>
	<rect x="5278" y="126.3" class="st0" width="517.3" height="42.4"/>
	<path class="st0" d="M4041.4,412.6c-10.6-23.5-43.9-23.8-54.8-0.4c-9.3,20,5.3,42.9,27.3,42.9l0,0
		C4035.8,455.1,4050.4,432.6,4041.4,412.6L4041.4,412.6z"/>
	<path class="st0" d="M3510.9,149.4c-29.8-15.4-62.2-23-97.3-23h-213.9l0.9,599.3h41.5V514.8v-49.1v-43.3l-0.9-253.6h172.4
		c27.7,0,53.2,5.7,76.5,17.1c23.4,11.4,42,26.7,55.8,46.1c13.8,19.4,20.7,40.7,20.7,64.1c0,22.8-6.9,43.8-20.7,63.2
		c-13.8,19.4-32.4,34.7-55.8,46.1c-23.4,11.4-48.9,17.1-76.5,17.1H3302v43.3h111.6c35,0,67.5-7.7,97.3-23.1
		c29.8-15.4,53.5-36.1,71-62.2c17.5-26.1,26.3-54.2,26.3-84.4c0-30.7-8.8-59-26.3-84.8C3564.4,185.3,3540.8,164.7,3510.9,149.4z"/>
</g>
</svg>
