<?xml version="1.0" encoding="utf-8"?>
<!-- Generator: Adobe Illustrator 26.1.0, SVG Export Plug-In . SVG Version: 6.00 Build 0)  -->
<svg version="1.1" id="Layer_1" xmlns="http://www.w3.org/2000/svg" xmlns:xlink="http://www.w3.org/1999/xlink" x="0px" y="0px"
	 viewBox="0 0 5910.9526367 888.374939" style="enable-background:new 0 0 5910.9526367 888.374939;" xml:space="preserve">
<style type="text/css">
	.st0{fill:#FFFFFF;}
</style>
<path class="st0" d="M255.3999939,40.574913C130.8999939,40.574913,30,141.4749298,30,265.9749146
	c0,170.1000061,152.3000031,438.6000366,206.5,528.8000488c8.6000061,14.2999878,29.2000122,14.2999878,37.7999878,0
	c54.2000122-90.2000122,206.5-358.8000183,206.5-528.8000488C480.7999878,141.4749298,379.8999939,40.574913,255.3999939,40.574913z
	 M255.3999939,401.3749084c-74.6999969,0-135.3000031-60.6000061-135.3000031-135.2999878
	s60.5999908-135.2999878,135.3000031-135.2999878s135.3000183,60.5999908,135.3000183,135.2999878
	S330.1000061,401.3749084,255.3999939,401.3749084z"/>
<g>
	<path class="st0" d="M356.7000122,747.7749634l7.3999939-0.2999878l7.6000061-0.2999878
		c5.1000061-0.2999878,10.1000061-0.5,15.2000122-0.7999878c10.2000122-0.5999756,20.2999878-1.4000244,30.5-2.2000122l0,0
		c11.2999878-0.9000244,21.1000061,7.5,22.1000061,18.7000122c0.8999939,11-7.2000122,20.7000122-18.1000061,22
		c-10.3999939,1.2000122-20.7999878,2.2999878-31.2000122,3.2999878c-5.2000122,0.5-10.3999939,1-15.7000122,1.4000244
		l-7.8999939,0.5999756L358.5,790.7749634c-11.7999878,0.7999878-22.1000061-8.0999756-23-20
		c-0.7999878-11.7999878,8.1000061-22.0999756,20-23c0.2000122,0,0.3999939,0,0.6000061,0H356.7000122z"/>
	<path class="st0" d="M478.2999878,738.0749512c20.2000122-2.4000244,40.4000244-5.2999878,60.5-8.5999756l0,0
		c10-1.7000122,19.5,5.0999756,21.2000122,15.0999756c1.5999756,9.7999878-4.9000244,19.0999756-14.5,21
		c-20.5,4.0999756-41.1000061,7.7000122-61.7999878,10.9000244c-10.6000061,1.5999756-20.5-5.5999756-22.2000122-16.2000122
		s5.6000061-20.5,16.2000122-22.2000122C477.8999939,738.0749512,478.1000061,738.0749512,478.2999878,738.0749512z"/>
	<path class="st0" d="M598.5999756,717.7749634c19.7999878-4.5,39.4000244-9.5,58.5999756-15.5l0,0
		c8.5999756-2.7000122,17.7000122,2.0999756,20.4000244,10.7000122c2.5999756,8.4000244-2,17.4000244-10.2000122,20.2000122
		c-20,7-40.2999878,12.9000244-60.7000122,18.2000122c-9.2999878,2.4000244-18.7999878-3.0999756-21.2000122-12.4000244
		s3.0999756-18.7999878,12.4000244-21.2000122C598.2000122,717.874939,598.5,717.874939,598.5999756,717.7749634z"/>
	<path class="st0" d="M713.5,681.2749634c9-4.0999756,17.7999878-8.5999756,26.2999878-13.4000244
		c8.5-4.9000244,16.5999756-10.2000122,24.0999756-16.0999756l0,0c6.2000122-4.7999878,15.2000122-3.7000122,20,2.5
		c4.7000122,6.0999756,3.7000122,14.7999878-2.2000122,19.7000122
		c-8.5999756,7.0999756-17.5999756,13.4000244-26.7999878,19.2000122
		c-9.2999878,5.7999878-18.7000122,10.9000244-28.4000244,15.7000122l0,0c-7.5999756,3.7000122-16.7000122,0.7000122-20.5-6.9000244
		c-3.7000122-7.5999756-0.7000122-16.7000122,6.9000244-20.5C713.0999756,681.374939,713.2999878,681.374939,713.5,681.2749634z"/>
	<path class="st0" d="M798.9000244,609.7749634c1.7999878-4.0999756,3.2000122-8.2000122,4.2000122-12.5
		c0.5-2.0999756,0.9000244-4.2999878,1.2999878-6.5c0.2000122-1.0999756,0.2999878-2.2000122,0.4000244-3.2999878
		c0.0999756-1.2000122,0.2000122-2.4000244,0.2999878-3.5999756c0.7999878-9.5999756,0.7000122-19.0999756-0.5-28.2999878
		v-0.0999756c-0.9000244-6.7000122,3.7999878-12.7999878,10.5-13.5999756c6.5-0.9000244,12.5,3.5999756,13.5999756,10.0999756
		c1.9000244,11.2000122,2.2999878,22.5,1.7999878,33.5c-0.0999756,1.4000244-0.0999756,2.7000122-0.2000122,4.2000122
		c-0.0999756,1.5-0.2000122,2.9000244-0.4000244,4.4000244c-0.2999878,2.9000244-0.7999878,5.9000244-1.4000244,8.7999878
		c-1.2000122,5.7999878-2.9000244,11.5-5.0999756,17l0,0c-2.7000122,6.7999878-10.2999878,10.0999756-17.0999756,7.4000244
		c-6.7999878-2.7000122-10.0999756-10.2999878-7.4000244-17.0999756
		C798.7999878,610.0749512,798.7999878,609.9749146,798.9000244,609.7749634z"/>
	<path class="st0" d="M782.2000122,506.1748962c-6.2000122-7-13.5-13.2000122-21.4000244-19
		c-7.9000244-5.7000122-16.4000244-10.9000244-25.2000122-15.9000244l0,0c-4.7999878-2.7999878-6.5-8.9000244-3.7999878-13.7999878
		c2.7000122-4.7000122,8.7000122-6.5,13.5-3.9000244C754.5999756,458.474884,764,463.7748718,773,469.8748474
		s17.7999878,13.0999756,25.5999756,21.2999878l0,0c4.2000122,4.4000244,4.0999756,11.5-0.4000244,15.7000122
		c-4.4000244,4.2000122-11.5,4.0999756-15.7000122-0.4000244
		C782.2999878,506.3749084,782.2000122,506.2749329,782.2000122,506.1748962z"/>
	<path class="st0" d="M681.0999756,440.5749207c-9-5.7999878-17.7999878-12.2000122-25.9000244-19.7999878
		c-8-7.5999756-15.2999878-16.4000244-20.7000122-26.2999878c-2.0999756-3.8999939-0.7000122-8.7999878,3.2000122-10.8999939
		c3.7999878-2.1000061,8.5-0.7000122,10.7000122,3c4.7999878,8.1000061,11,15.3000183,18.2000122,21.6000061
		c7.2000122,6.4000244,15.2999878,11.9000244,23.9000244,17c4.2999878,2.5999756,5.7000122,8.0999756,3.2000122,12.4000244
		c-2.5999756,4.2999878-8.0999756,5.7000122-12.4000244,3.2000122
		C681.2999878,440.7749329,681.2000122,440.6748962,681.0999756,440.5749207z"/>
	<path class="st0" d="M623.0999756,329.9749146c1.0999756-11,3.9000244-21.7999878,8.2000122-31.8999939
		s10-19.3999939,16.5-27.8999939c2-2.6000061,5.7000122-3.1000061,8.2999878-1.1000061
		c2.5,1.8999939,3.0999756,5.6000061,1.2000122,8.2000122l0,0c-5.7999878,8.1000061-10.5999756,16.7000122-14.0999756,25.7999878
		c-3.5,9.1000061-5.7000122,18.5-6.2999878,28.1000061c-0.2000122,3.7999878-3.5,6.7999878-7.4000244,6.5
		c-3.7999878-0.2000122-6.7999878-3.5-6.5-7.3999939C623.0999756,330.1748962,623.0999756,330.0749207,623.0999756,329.9749146
		L623.0999756,329.9749146z"/>
	<path class="st0" d="M694.5,227.0749359c17.2999878-12,35.7000122-22.2000122,54.5-31.1000061
		c1.9000244-0.8999939,4.2000122-0.1000061,5.0999756,1.7999878c0.9000244,1.8999939,0.0999756,4.1000061-1.7000122,5.1000061l0,0
		c-18.2000122,9.3999939-35.9000244,20-52.2000122,32.2000122l0,0c-2.2000122,1.6000061-5.2000122,1.2000122-6.9000244-1
		c-1.5999756-2.2000122-1.2000122-5.2000122,1-6.8999939C694.4000244,227.1749115,694.5,227.0749359,694.5,227.0749359z"/>
	<path class="st0" d="M806.5999756,172.2749176c19.5-7,39.4000244-13.1000061,59.2999878-18.6000061
		c0.9000244-0.2999878,1.9000244,0.2999878,2.2000122,1.2000122c0.2999878,0.8999939-0.2999878,1.8999939-1.2000122,2.2000122
		c-19.7000122,6.2000122-39.2000122,12.8999939-58.2999878,20.5c-1.4000244,0.6000061-3.0999756-0.1000061-3.7000122-1.6000061
		C804.4000244,174.4749298,805.0999756,172.8749237,806.5999756,172.2749176L806.5999756,172.2749176z"/>
	<path class="st0" d="M926.2999878,138.8749237c7.2999878-1.5,14.5-3,21.7999878-4.3999939S962.6999512,131.7749329,970,130.6749268
		c-7.2999878,1.3999939-14.5,2.8999939-21.7999878,4.5c-7.2000122,1.6000061-14.5,3.3000031-21.7000122,5.1000061
		c-0.4000244,0.1000061-0.7999878-0.1000061-0.9000244-0.5
		C925.5999756,139.3749237,925.9000244,138.9749298,926.2999878,138.8749237L926.2999878,138.8749237z"/>
</g>
<g>
	<polygon class="st0" points="1739.0625,606.710144 1548.8959961,173.3448181 1356.6289062,608.5556641 1185.3737793,126.3199539 
		1135.9920654,126.3199539 1352.425415,735.7992554 1548.8959961,289.5216675 1743.2659912,735.7992554 1958.6478271,126.3199539 
		1908.2172852,126.3199539 	"/>
	<polygon class="st0" points="1958.6499023,725.6574707 2004.7541504,725.6574707 2238.9575195,221.2923737 
		2327.8864746,422.3019104 2206.1889648,422.3019104 2184.6867676,465.6377563 2347.0585938,465.6377563 2462.0944824,725.6574707 
		2507.2758789,725.6574707 2240.8010254,118.94207 	"/>
	<polygon class="st0" points="2790.3515625,473.011322 2574.7597656,126.3199539 2524.96875,126.3199539 2769.1452637,518.1928711 
		2769.1452637,725.6574707 2810.6374512,725.6574707 2810.6374512,518.1928711 3054.8117676,126.3199539 3005.020752,126.3199539 	
		"/>
	<path class="st0" d="M4166.0566406,160.8960266c-46.7216797-27.3443604-97.4355469-41.031105-152.1408691-41.031105
		c-54.7180176,0-105.4316406,13.6867447-152.137207,41.031105
		c-46.7260742,27.3588409-83.6069336,64.5424957-110.6506348,111.5694275
		c-27.0561523,47.0267944-40.5678711,98.1998596-40.5678711,153.5232544s13.5117188,106.4962769,40.5678711,153.5232544
		c27.0437012,47.0227661,63.9245605,84.2250366,110.6506348,111.569397
		c46.7055664,27.3568115,97.4191895,41.0311279,152.137207,41.0311279c54.7053223,0,105.4191895-13.6743164,152.1408691-41.0311279
		c46.7060547-27.3443604,83.5908203-64.5466309,110.6469727-111.569397
		c27.043457-47.0269775,40.5717773-98.1998901,40.5717773-153.5232544s-13.5283203-106.49646-40.5717773-153.5232544
		C4249.6474609,225.4385223,4212.7626953,188.2548676,4166.0566406,160.8960266z M4239.8227539,558.3054199
		c-23.3696289,40.2670288-55.0224609,72.2375488-94.9726562,95.8909912
		c-39.9663086,23.6741333-83.6066895,35.4987793-130.9343262,35.4987793c-47.340332,0-90.980957-11.824646-130.9306641-35.4987793
		c-39.9660645-23.6534424-71.7780762-55.6239624-95.4355469-95.8909912
		c-23.6704102-40.2545776-35.4990234-84.3712463-35.4990234-132.3167114s11.8286133-92.0497437,35.4990234-132.3167419
		c23.6574707-40.254425,55.4694824-72.2210083,95.4355469-95.8951263
		c39.949707-23.6555023,83.590332-35.4967041,130.9306641-35.4967041c47.3276367,0,90.9680176,11.8412018,130.9343262,35.4967041
		c39.9501953,23.674118,71.6030273,55.6407013,94.9726562,95.8951263
		c23.3525391,40.2669983,35.0356445,84.3712463,35.0356445,132.3167419S4263.175293,518.0508423,4239.8227539,558.3054199z"/>
	<rect x="4462.0180664" y="126.3199539" class="st0" width="41.4904594" height="599.3375244"/>
	<polygon class="st0" points="5107.4428711,615.0106812 4692.5180664,118.94207 4692.5180664,725.6574707 4734.0083008,725.6574707 
		4734.0083008,238.812088 5148.9375,735.7992554 5148.9375,126.3199539 5107.4428711,126.3199539 	"/>
	<rect x="5515.9116211" y="224.3166504" class="st0" width="42.4139481" height="501.3514709"/>
	<rect x="5278.0205078" y="126.3210678" class="st0" width="517.2994995" height="42.413311"/>
	<path class="st0" d="M4041.423584,412.6138611c-10.5771484-23.5489807-43.9279785-23.7827148-54.8342285-0.3841858
		c-9.3168945,19.9890747,5.2753906,42.8903198,27.3293457,42.8903198l0,0c21.8708496,0,36.4660645-22.5552673,27.5048828-42.5059814
		V412.6138611z"/>
	<path class="st0" d="M3510.9453125,149.3699188c-29.8225098-15.3568268-62.2397461-23.0499649-97.2773438-23.0499649h-213.9174805
		l0.9206543,599.3375244h41.4946289V514.7544556v-49.1166992v-43.3358459l-0.9228516-253.5688019h172.4250488
		c27.6618652,0,53.1628418,5.690918,76.5300293,17.0584259c23.3547363,11.384079,41.9538574,26.7409058,55.7868652,46.1020203
		c13.8286133,19.3652496,20.7431641,40.7304993,20.7431641,64.0831604c0,22.7515869-6.9145508,43.7994995-20.7431641,63.1604309
		c-13.8330078,19.3652649-32.4321289,34.7389526-55.7868652,46.104248
		c-23.3671875,11.382019-48.8681641,17.0605164-76.5300293,17.0605164h-111.6442871v43.3358459h111.6442871
		c35.0375977,0,67.454834-7.6784973,97.2773438-23.0520325c29.8120117-15.3569946,53.4777832-36.1043091,70.9975586-62.2377625
		c17.5197754-26.1209106,26.279541-54.2460938,26.279541-84.3712463c0-30.7305603-8.7597656-59.0101776-26.279541-84.8263245
		C3564.4230957,185.3301086,3540.7573242,164.7436371,3510.9453125,149.3699188z"/>
</g>
</svg>
