<?xml version="1.0" encoding="utf-8"?>
<!-- Generator: Adobe Illustrator 26.1.0, SVG Export Plug-In . SVG Version: 6.00 Build 0)  -->
<svg version="1.1" id="Layer_1" xmlns="http://www.w3.org/2000/svg" xmlns:xlink="http://www.w3.org/1999/xlink" x="0px" y="0px"
	 viewBox="0 0 512 512" style="enable-background:new 0 0 512 512;" xml:space="preserve">
<style type="text/css">
	.st0{fill:#FFFFFF;stroke:#231F20;stroke-miterlimit:10;}
	.st1{fill:#000060;}
</style>
<rect x="0.281768" class="st0" width="512" height="512"/>
<path class="st1" d="M134.9830475,77.8504257c-63.6727142,0-115.28965,51.6168747-115.28965,115.2895889
	c0,86.9698792,77.8883514,224.3075562,105.6256485,270.4583435c4.3809204,7.2892456,14.9470215,7.2892456,19.3279877,0
	c27.7373047-46.1507874,105.6255951-183.4884644,105.6255951-270.4583435
	C250.2726288,129.4673004,198.6557465,77.8504257,134.9830475,77.8504257z M134.9830475,262.3432007
	c-38.2198715,0-69.2031937-30.9833221-69.2031937-69.203186s30.9833221-69.203186,69.2031937-69.203186
	s69.203186,30.9833221,69.203186,69.203186S173.2029114,262.3432007,134.9830475,262.3432007z"/>
<g>
	<path class="st1" d="M186.7828064,439.5521851l3.7958832-0.1385498l3.8801422-0.1779175
		c2.5922699-0.1280823,5.190567-0.2741089,7.7897797-0.4313049c5.1993408-0.3210754,10.4033051-0.6924744,15.6046448-1.1144409
		l0.0084229-0.0006714c5.7615967-0.4674377,10.811203,3.8243408,11.2786255,9.5859375
		c0.4574127,5.6383362-3.6619263,10.5968933-9.2372284,11.2444458c-5.3178711,0.6111755-10.6430969,1.171051-15.9808807,1.6803894
		c-2.6698608,0.2514343-5.342392,0.4916382-8.0233765,0.7142334l-4.0315247,0.3204041l-4.1199341,0.2880554
		c-6.0595703,0.4236755-11.3152924-4.1451416-11.7389679-10.2047424
		c-0.4236603-6.0595703,4.1451569-11.3152771,10.2047424-11.7389832c0.106308-0.0074158,0.2123566-0.0133362,0.3181458-0.0177002
		L186.7828064,439.5521851z"/>
	<path class="st1" d="M249.00914,434.5508728c10.3474579-1.2494812,20.664566-2.7053833,30.9269867-4.4087524l0.0067139-0.0010681
		c5.124115-0.8505249,9.9674683,2.6139221,10.8179932,7.7380676c0.8322449,5.0143433-2.484436,9.7631531-7.428009,10.7611694
		c-10.5032043,2.1072388-21.0431824,3.9563293-31.6093903,5.5931702c-5.4225464,0.8412476-10.500351-2.8726501-11.3415833-8.2951965
		s2.8726654-10.5003357,8.2952118-11.3416138C248.7728729,434.5818176,248.913559,434.5629272,249.00914,434.5508728z"/>
	<path class="st1" d="M310.5418701,424.2043457c10.1228027-2.2803955,20.1516418-4.881073,29.9927673-7.9337158l0.0107422-0.0033264
		c4.4010315-1.3652039,9.0754395,1.0958862,10.4405823,5.4968872c1.3359985,4.3069153-1.0068054,8.8805847-5.2316589,10.3534546
		c-10.2425537,3.5569458-20.6022644,6.6137085-31.0208435,9.3305359c-4.7421875,1.237854-9.5900269-1.6029968-10.8278809-6.3452148
		c-1.237854-4.7421875,1.6029968-9.5900269,6.3452148-10.8278809
		C310.3345337,424.2532349,310.4580994,424.2236938,310.5418701,424.2043457z"/>
	<path class="st1" d="M369.27005,405.5148315c4.6168213-2.100769,9.1261597-4.3758545,13.4588318-6.8725586
		c4.3308716-2.4967651,8.4867554-5.2164917,12.3476562-8.2090149l0.0249634-0.0193787
		c3.1785278-2.463623,7.7523804-1.8840942,10.2160034,1.2944031c2.410675,3.1102295,1.8972473,7.5649719-1.1035156,10.0628052
		c-4.3774414,3.6348877-8.9876404,6.8676453-13.7180176,9.8114624c-4.7325745,2.9425964-9.5888977,5.596405-14.5152893,8.0406799
		l-0.002533,0.0012512c-3.8651733,1.9177551-8.5531921,0.3390503-10.4709778-3.5261536
		c-1.9177551-3.8651733-0.3390503-8.5531921,3.5261536-10.4709778
		C369.1016846,405.5934753,369.2011719,405.5465698,369.27005,405.5148315z"/>
	<path class="st1" d="M412.9515076,368.9729309c0.9009705-2.0746765,1.6269836-4.2105408,2.1524963-6.3973083
		c0.2620239-1.0935059,0.4761047-2.1990967,0.641571-3.3147583c0.0844116-0.5576172,0.1514282-1.1184692,0.2118835-1.6807861
		c0.0575562-0.5970764,0.1180115-1.2223816,0.1635437-1.8310852c0.3906555-4.8997192,0.3519287-9.7702332-0.2697144-14.490509
		l-0.0039062-0.0298767c-0.4485168-3.4057922,1.948822-6.530304,5.3545837-6.9788208
		c3.3323669-0.4388428,6.3973083,1.8580933,6.947937,5.1470642c0.9535828,5.7382507,1.1745911,11.4960327,0.9163818,17.143219
		c-0.0297852,0.7106323-0.0726318,1.4028625-0.1181335,2.1231384c-0.0542603,0.7541504-0.1194153,1.5083923-0.2064819,2.2611084
		c-0.1708069,1.5057068-0.4083557,3.0066528-0.7119751,4.494812c-0.6082153,2.9765015-1.4905701,5.896759-2.6013489,8.7095947
		l-0.0051575,0.0130615c-1.3694763,3.467926-5.2909851,5.1690674-8.7589417,3.7995911
		c-3.467926-1.3694763-5.1690674-5.2909851-3.7995911-8.7589111
		C412.888916,369.1210327,412.9256592,369.0332336,412.9515076,368.9729309z"/>
	<path class="st1" d="M404.4034424,315.9880981c-3.1731873-3.5688171-6.9006653-6.7726135-10.9460754-9.7023315
		c-4.0474243-2.9324341-8.4074402-5.5971069-12.9085083-8.1572876l-0.0052185-0.0029602
		c-2.4764099-1.4085999-3.3421021-4.5579834-1.9335327-7.0344238c1.3786621-2.4237976,4.4332275-3.3001709,6.8839722-2.0158081
		c4.7722473,2.5082703,9.5464172,5.1983337,14.1712036,8.3161926c4.6183472,3.1154175,9.096283,6.6760864,13.0987244,10.880249
		l0.0121155,0.0127258c2.1666565,2.2758789,2.078125,5.8772278-0.1977234,8.0438538
		c-2.2758484,2.1666565-5.8771973,2.078125-8.0438538-0.1976929
		C404.495575,316.0896606,404.440979,316.0299072,404.4034424,315.9880981z"/>
	<path class="st1" d="M352.7122192,282.4388428c-4.6072693-2.9544678-9.1265564-6.239563-13.2477722-10.121521
		c-4.1160278-3.8693237-7.809967-8.3815918-10.5739441-13.4623413c-1.0812683-1.9876404-0.3465576-4.4755096,1.6410828-5.5567932
		c1.9442749-1.0577087,4.3720093-0.3695068,5.4888306,1.5210266c2.4368896,4.1365051,5.6383972,7.8128052,9.3286743,11.058197
		c3.6905518,3.2510681,7.8499756,6.0857544,12.227356,8.6885986c2.1968689,1.3062744,2.9188232,4.1461182,1.6125488,6.3429565
		c-1.3062439,2.1968689-4.1460876,2.9188232-6.3429565,1.6125793
		C352.8068542,282.4982605,352.7504578,282.4631042,352.7122192,282.4388428z"/>
	<path class="st1" d="M323.0722961,225.8592682c0.5404663-5.6313477,1.9960938-11.15625,4.1950073-16.3011017
		c2.1942139-5.1529694,5.1031799-9.927597,8.4424744-14.2925415c1.0185547-1.3314514,2.923645-1.585083,4.2550659-0.5664978
		c1.302948,0.9967804,1.573761,2.842453,0.6302185,4.1687775l-0.0065002,0.0090485
		c-2.9410706,4.1237946-5.4159241,8.5347748-7.2081604,13.1710663c-1.7970276,4.6325073-2.8945312,9.4867554-3.2001953,14.3896027
		c-0.1225586,1.9658051-1.8154907,3.4600677-3.781311,3.3375092s-3.460083-1.815506-3.3375244-3.781311
		c0.0021667-0.0346069,0.0047913-0.0690765,0.0079041-0.1033783L323.0722961,225.8592682z"/>
	<path class="st1" d="M359.5666504,173.2163391c8.8428955-6.1500549,18.2427063-11.3322144,27.8703613-15.9232178
		c0.9839478-0.4691925,2.1619568-0.0519104,2.6311646,0.9320374c0.4592285,0.9629974,0.0692749,2.1118927-0.8699646,2.6002197
		l-0.006012,0.0030823c-9.3222046,4.8327484-18.3507385,10.220932-26.6946106,16.449295l-0.0026245,0.0019379
		c-1.10849,0.8274536-2.677887,0.5996094-3.5053101-0.5088959c-0.8274841-1.10849-0.5996399-2.677887,0.5088806-3.5053406
		C359.5181274,173.2508392,359.5467834,173.2303162,359.5666504,173.2163391z"/>
	<path class="st1" d="M416.922699,145.1761475c9.997467-3.5599213,20.125946-6.7048187,30.3336182-9.5281677
		c0.4855652-0.1342773,0.9880676,0.1504669,1.1223755,0.6360321c0.1314392,0.475174-0.1404724,0.9672089-0.6071777,1.1138763
		c-10.0701904,3.1515961-20.0370483,6.6168518-29.8350525,10.4799042c-0.7413025,0.2925873-1.5794067-0.0711823-1.8719788-0.8125
		c-0.292572-0.7413025,0.0711975-1.579422,0.8125-1.871994C416.8900757,145.1881256,416.9095459,145.1809082,416.922699,145.1761475
		z"/>
	<path class="st1" d="M478.1038513,128.1298828c3.7148438-0.7880707,7.4376221-1.5357437,11.1674805-2.242691
		c3.7310791-0.7002182,7.4676819-1.37117,11.2182312-1.9503632c-3.7286987,0.704422-7.4386902,1.4997482-11.1411743,2.3238525
		c-3.7011414,0.8308182-7.3925781,1.7017746-11.0736084,2.6125183c-0.2044678,0.0506592-0.4112854-0.0740051-0.4619751-0.2784729
		c-0.0506592-0.2044525,0.0740051-0.4112854,0.2784729-0.4619446
		C478.0949097,128.1318817,478.1002808,128.130661,478.1038513,128.1298828z"/>
</g>
</svg>
