<?xml version="1.0" encoding="utf-8"?>
<!-- Generator: Adobe Illustrator 26.0.3, SVG Export Plug-In . SVG Version: 6.00 Build 0)  -->
<svg version="1.1" id="Layer_1" xmlns="http://www.w3.org/2000/svg" xmlns:xlink="http://www.w3.org/1999/xlink" x="0px" y="0px"
	 viewBox="0 0 16 16" style="enable-background:new 0 0 16 16;" xml:space="preserve">
<path d="M14.2,6h-3.7C10.2,6,10,5.8,10,5.5V1.8c0-0.3-0.2-0.5-0.5-0.5h-3C6.2,1.4,6,1.6,6,1.8v3.7C6,5.8,5.8,6,5.5,6H1.8
	C1.6,6,1.4,6.2,1.4,6.5v3c0,0.3,0.2,0.5,0.5,0.5h3.7C5.8,10,6,10.2,6,10.5v3.7c0,0.3,0.2,0.5,0.5,0.5h3c0.3,0,0.5-0.2,0.5-0.5v-3.7
	c0-0.3,0.2-0.5,0.5-0.5h3.7c0.3,0,0.5-0.2,0.5-0.5v-3C14.6,6.2,14.4,6,14.2,6z"/>
</svg>
