<?xml version="1.0" encoding="utf-8"?>
<!-- Generator: Adobe Illustrator 26.0.3, SVG Export Plug-In . SVG Version: 6.00 Build 0)  -->
<svg version="1.1" id="Layer_1" xmlns="http://www.w3.org/2000/svg" xmlns:xlink="http://www.w3.org/1999/xlink" x="0px" y="0px"
	 viewBox="0 0 16 16" style="enable-background:new 0 0 16 16;" xml:space="preserve">
<path d="M8,0C3.6,0,0,3.6,0,8s3.6,8,8,8s8-3.6,8-8S12.4,0,8,0z M11.7,10.3c0.2,0.2,0.3,0.4,0.3,0.7s-0.1,0.5-0.3,0.7
	C11.5,11.9,11.3,12,11,12s-0.5-0.1-0.7-0.3L8,9.4l-2.3,2.3c-0.4,0.4-1,0.4-1.4,0c-0.4-0.4-0.4-1,0-1.4L6.6,8L4.3,5.7
	c-0.4-0.4-0.4-1,0-1.4c0.4-0.4,1-0.4,1.4,0L8,6.6l2.3-2.3c0.4-0.4,1-0.4,1.4,0C11.9,4.5,12,4.7,12,5s-0.1,0.5-0.3,0.7L9.4,8
	L11.7,10.3z"/>
</svg>
