<?xml version="1.0" encoding="utf-8"?>
<!-- Generator: Adobe Illustrator 26.0.3, SVG Export Plug-In . SVG Version: 6.00 Build 0)  -->
<svg version="1.1" id="Layer_1" xmlns="http://www.w3.org/2000/svg" xmlns:xlink="http://www.w3.org/1999/xlink" x="0px" y="0px"
	 viewBox="0 0 16 16" style="enable-background:new 0 0 16 16;" xml:space="preserve">
<style type="text/css">
	.st0{fill-rule:evenodd;clip-rule:evenodd;}
</style>
<path class="st0" d="M15.3,8.5l-2.4-2.4V2.7c0-0.2-0.2-0.4-0.4-0.4h-0.9c-0.2,0-0.4,0.2-0.4,0.4v1.6L8.9,2C8.6,1.8,8.3,1.7,8,1.7
	S7.4,1.8,7.1,2L0.7,8.5C0.5,8.6,0.4,8.8,0.4,9s0.1,0.4,0.2,0.5C0.8,9.7,1,9.8,1.2,9.8s0.4-0.1,0.5-0.2l1-1v4.4
	c0,0.9,0.7,1.7,1.7,1.7h7.1c0.9,0,1.7-0.7,1.7-1.7V8.5l1,1c0.1,0.1,0.3,0.2,0.5,0.2c0.2,0,0.4-0.1,0.5-0.2c0.1-0.1,0.2-0.3,0.2-0.5
	C15.5,8.8,15.5,8.6,15.3,8.5z M11.7,12.9c0,0.1-0.1,0.1-0.1,0.1H9.3V9H6.7v4H4.4c-0.1,0-0.1-0.1-0.1-0.1V7L8,3.3L11.7,7V12.9z"/>
</svg>
