<?xml version="1.0" encoding="utf-8"?>
<!-- Generator: Adobe Illustrator 26.0.3, SVG Export Plug-In . SVG Version: 6.00 Build 0)  -->
<svg version="1.1" id="Layer_1" xmlns="http://www.w3.org/2000/svg" xmlns:xlink="http://www.w3.org/1999/xlink" x="0px" y="0px"
	 viewBox="0 0 16 16" style="enable-background:new 0 0 16 16;" xml:space="preserve">
<path d="M9.3,0H4C2.9,0,2,0.9,2,2v12c0,1.1,0.9,2,2,2h8c1.1,0,2-0.9,2-2V4.7c0-0.3-0.1-0.5-0.3-0.7L10,0.3C9.8,0.1,9.6,0,9.3,0z
	 M9.5,3.5v-2l3,3h-2C9.9,4.5,9.5,4.1,9.5,3.5z M5.7,9.8c-0.3,0.3-0.7,0.3-1,0c-0.3-0.3-0.3-0.7,0-1L7.5,6c0.3-0.3,0.7-0.3,1,0
	c0,0,0,0,0,0l2.8,2.8c0.3,0.3,0.3,0.7,0,1c-0.3,0.3-0.7,0.3-1,0L8.7,8.2v5.3c0,0.4-0.3,0.7-0.7,0.7c-0.4,0-0.7-0.3-0.7-0.7V8.2
	L5.7,9.8z"/>
</svg>
