<?xml version="1.0" encoding="utf-8"?>
<!-- Generator: Adobe Illustrator 26.0.3, SVG Export Plug-In . SVG Version: 6.00 Build 0)  -->
<svg version="1.1" id="Layer_1" xmlns="http://www.w3.org/2000/svg" xmlns:xlink="http://www.w3.org/1999/xlink" x="0px" y="0px"
	 viewBox="0 0 16 16" style="enable-background:new 0 0 16 16;" xml:space="preserve">
<path d="M13.9,6.5C13.7,6,13.1,5.8,12.6,6c-0.5,0.2-0.8,0.8-0.5,1.3c0.3,0.6,0.4,1.2,0.4,1.9c0,1.2-0.5,2.3-1.3,3.2
	c-0.8,0.9-2,1.3-3.2,1.3c0,0,0,0,0,0c-2.5,0-4.5-2-4.5-4.5C3.5,8,4,6.9,4.8,6c0.7-0.7,1.5-1.1,2.4-1.2v1.9c0,0.1,0,0.2,0.1,0.2
	c0.1,0.2,0.4,0.2,0.5,0l3.6-3c0.2-0.2,0.2-0.4,0-0.6l-3.6-3C7.8,0.3,7.7,0.3,7.6,0.3c-0.2,0-0.4,0.2-0.4,0.4v2.1
	C6.6,2.8,5.9,3,5.3,3.3C2,4.8,0.6,8.6,2.1,11.9c1.1,2.4,3.5,3.8,5.9,3.8c0.9,0,1.8-0.2,2.7-0.6C14,13.6,15.4,9.7,13.9,6.5z"/>
</svg>
